<svg width="1440" height="230" viewBox="0 0 1440 230" fill="none" xmlns="http://www.w3.org/2000/svg">
<path d="M-2.77016 0.304321H1922.77C1922.77 0.304321 2233.79 171.272 1922.77 359.304C1756.89 459.588 1694 462.304 1484.5 403.65C1275 344.995 1188.11 510.304 960 510.304C731.892 510.304 636.521 423.883 428.471 446.62C220.42 469.357 163.106 623.746 -2.77016 523.462C-313.787 335.43 -2.77016 0.304321 -2.77016 0.304321Z" fill="#223A90" fill-opacity="0.1"/>
<rect opacity="0.06" x="530.599" y="223.606" width="141.408" height="141.408" rx="19.8152" transform="rotate(120 530.599 223.606)" fill="#223A90"/>
<rect opacity="0.06" x="246.646" y="252.637" width="141.408" height="141.408" rx="19.8152" transform="rotate(120 246.646 252.637)" fill="#223A90"/>
<rect opacity="0.06" x="385.87" y="140.046" width="141.408" height="141.408" rx="19.8152" transform="rotate(120 385.87 140.046)" fill="#223A90"/>
</svg>
