<svg width="1440" height="325" viewBox="0 0 1440 325" fill="none" xmlns="http://www.w3.org/2000/svg">
<path d="M-2.77016 -232H1922.77C1922.77 -232 2233.79 -61.032 1922.77 127C1756.89 227.284 1694 230 1484.5 171.345C1275 112.691 1188.11 278 960 278C731.892 278 636.521 191.579 428.471 214.316C220.42 237.053 163.106 391.442 -2.77016 291.158C-313.787 103.126 -2.77016 -232 -2.77016 -232Z" fill="#223A90" fill-opacity="0.1"/>
<rect opacity="0.06" x="530.599" y="-8.69775" width="141.408" height="141.408" rx="19.8152" transform="rotate(120 530.599 -8.69775)" fill="#223A90"/>
<rect opacity="0.06" x="391.375" y="103.893" width="141.408" height="141.408" rx="19.8152" transform="rotate(120 391.375 103.893)" fill="#223A90"/>
<rect opacity="0.06" x="246.646" y="20.3333" width="141.408" height="141.408" rx="19.8152" transform="rotate(120 246.646 20.3333)" fill="#223A90"/>
<rect opacity="0.06" x="385.87" y="-92.2579" width="141.408" height="141.408" rx="19.8152" transform="rotate(120 385.87 -92.2579)" fill="#223A90"/>
</svg>
