<svg width="65" height="59" viewBox="0 0 65 59" fill="none" xmlns="http://www.w3.org/2000/svg">
<path d="M9.70149 35.8955H7.76119C7.76119 38.903 9.05473 42.3228 9.70149 43.6567V35.8955Z" fill="#F4291A"/>
<path d="M14.431 35.8955H12.3694V48.6287L14.431 50.9328V35.8955Z" fill="#223A90"/>
<path d="M19.2817 35.8955H17.3414V53.6008L19.2817 54.9347V35.8955Z" fill="#F4291A"/>
<path d="M23.8899 35.8955H21.9496V56.3899C23.0168 56.875 23.6878 57.0771 23.8899 57.1175V35.8955Z" fill="#223A90"/>
<path d="M28.8619 35.8955H26.9216V58.0877L28.8619 58.4515V35.8955Z" fill="#F4291A"/>
<path d="M33.4701 35.8955H31.5299V58.694H33.4701V35.8955Z" fill="#223A90"/>
<path d="M38.4422 35.8955H36.5019L36.3806 58.4515C37.2537 58.2575 38.1188 58.0473 38.4422 57.9664V35.8955Z" fill="#F4291A"/>
<path d="M43.1716 35.8955H41.2313L41.3526 57.1175C42.9049 56.4384 43.2121 56.2687 43.1716 56.2687V35.8955Z" fill="#223A90"/>
<path d="M48.0224 35.8955H46.0821V54.6922C47.1493 54.0131 47.8203 53.4391 48.0224 53.2369V35.8955Z" fill="#F4291A"/>
<path d="M52.6306 35.8955H50.6903V50.6903L52.6306 48.2649V35.8955Z" fill="#223A90"/>
<path d="M56.9963 35.8955H55.4198V43.1716C56.681 39.9702 56.9963 36.9869 56.9963 35.8955Z" fill="#F4291A"/>
<path d="M0.606343 24.6175H0C1.64925 21.7071 5.86132 21.3837 7.76119 21.5858C11.2537 21.9739 13.5012 24.092 14.1884 25.1026H8.61007C5.21455 23.2593 1.85945 24.0112 0.606343 24.6175Z" fill="#223A90"/>
<path d="M19.2817 25.1026H16.7351C14.1157 18.4086 10.7929 15.199 9.45896 14.431C8.68284 13.7519 6.30597 13.0162 5.21455 12.7332C6.57276 11.8601 8.36754 11.9652 9.09515 12.1269C14.1399 13.194 17.9882 21.222 19.2817 25.1026Z" fill="#223A90"/>
<path d="M24.0112 25.1026H21.8284C22.7985 20.5429 19.6455 11.6418 17.9478 7.7612C21.6343 9.7015 23.5261 20.1306 24.0112 25.1026Z" fill="#223A90"/>
<path d="M28.9832 25.1026H26.3153V6.91232C26.6063 6.8153 26.8408 7.59951 26.9216 8.00373C27.1157 8.68284 28.3769 19.6859 28.9832 25.1026Z" fill="#223A90"/>
<path d="M33.834 25.1026H31.0448C30.7537 23.2593 31.166 14.0672 31.4086 9.70149C31.4086 6.30597 32.217 1.81903 32.6213 0C32.7183 0 32.7425 0.0808458 32.7425 0.121269C32.6455 0.800373 33.4297 17.0585 33.834 25.1026Z" fill="#223A90"/>
<path d="M38.6847 25.1026H35.8955C35.8955 22.7743 37.4316 12.6524 38.1996 7.88246C38.1996 7.39739 38.523 7.03358 38.6847 6.91232V25.1026Z" fill="#223A90"/>
<path d="M43.1716 25.1026H40.9888C41.1828 20.3489 42.6866 15.199 43.4142 13.2183C44.8694 9.4347 46.2842 8.08458 46.8097 7.88246C46.9067 7.78545 47.0118 7.84204 47.0522 7.88246C46.4701 8.94963 45.2736 12.2886 44.7481 13.8246C44.166 15.1828 43.5354 19.0796 43.2929 20.8582C43.0989 21.7313 43.1312 24.0516 43.1716 25.1026Z" fill="#223A90"/>
<path d="M48.2649 25.1026H45.597C45.9851 23.1623 48.3458 19.12 49.4776 17.3414C51.2239 14.722 53.1965 13.1779 53.9646 12.7332C56.0019 11.278 58.694 12.1269 59.7854 12.7332C53.1884 13.8004 49.3563 21.4241 48.2649 25.1026Z" fill="#223A90"/>
<path d="M56.2687 25.2239L50.8116 25.1026C52.5578 23.2593 53.8029 22.556 54.2071 22.4347C56.6325 21.3675 59.0983 21.4241 60.028 21.5858C62.6474 22.1679 64.4341 23.8495 65 24.6175H64.3937C60.6101 23.4534 57.4005 24.5367 56.2687 25.2239Z" fill="#223A90"/>
<path d="M15.3081 29.1306C15.3081 29.3684 15.261 29.6005 15.1669 29.827C15.0729 30.0535 14.9206 30.2573 14.7103 30.4384C14.9206 30.6196 15.0729 30.8262 15.1669 31.0584C15.261 31.2848 15.3081 31.5141 15.3081 31.7462C15.3081 32.0633 15.2555 32.3322 15.1503 32.553C15.0452 32.7681 14.904 32.9436 14.7269 33.0795C14.5498 33.2154 14.3422 33.3145 14.1042 33.3767C13.8662 33.439 13.6172 33.4701 13.357 33.4701H7.76119V27.4067H13.357C13.6172 27.4067 13.8662 27.4379 14.1042 27.5001C14.3422 27.5624 14.5498 27.6615 14.7269 27.7974C14.904 27.9332 15.0452 28.1116 15.1503 28.3324C15.2555 28.5475 15.3081 28.8136 15.3081 29.1306ZM13.191 29.8864C13.3626 29.8864 13.4954 29.8468 13.5895 29.7675C13.6891 29.6826 13.7389 29.5581 13.7389 29.3939C13.7389 29.2467 13.6891 29.1306 13.5895 29.0457C13.4954 28.9551 13.3736 28.9098 13.2242 28.9098H9.33035V29.8864H13.191ZM9.33035 30.9989V31.967H13.2242C13.3736 31.967 13.4954 31.9246 13.5895 31.8396C13.6891 31.7547 13.7389 31.6358 13.7389 31.483C13.7389 31.3188 13.6891 31.1971 13.5895 31.1178C13.4954 31.0385 13.3626 30.9989 13.191 30.9989H9.33035Z" fill="#223A90"/>
<path d="M21.9522 27.4067H23.5296V30.4384C23.5296 30.9027 23.477 31.3018 23.3719 31.6358C23.2667 31.9642 23.1256 32.2416 22.9485 32.4681C22.7769 32.6889 22.5804 32.8672 22.359 33.0031C22.1431 33.1333 21.919 33.2352 21.6865 33.3088C21.454 33.3767 21.2243 33.422 20.9974 33.4447C20.776 33.4617 20.5767 33.4701 20.3996 33.4701H19.1044C18.9273 33.4701 18.7253 33.4617 18.4984 33.4447C18.277 33.422 18.05 33.3767 17.8176 33.3088C17.5851 33.2352 17.3582 33.1333 17.1368 33.0031C16.9209 32.8672 16.7244 32.6889 16.5473 32.4681C16.3757 32.2416 16.2373 31.9642 16.1322 31.6358C16.027 31.3018 15.9744 30.9027 15.9744 30.4384V27.4067H17.5519V30.4384C17.5519 30.6309 17.5713 30.8177 17.61 30.9989C17.6487 31.1801 17.7096 31.3414 17.7927 31.483C17.8812 31.6245 17.9974 31.7377 18.1414 31.8227C18.2853 31.9076 18.4624 31.95 18.6727 31.95H20.9144C21.1247 31.95 21.2963 31.9076 21.4291 31.8227C21.5619 31.7377 21.6671 31.6245 21.7446 31.483C21.8221 31.3414 21.8747 31.1801 21.9023 30.9989C21.9356 30.8177 21.9522 30.6309 21.9522 30.4384V27.4067Z" fill="#223A90"/>
<path d="M31.9131 30.4384C31.9131 30.9027 31.8605 31.3018 31.7554 31.6358C31.6502 31.9642 31.5091 32.2416 31.3319 32.4681C31.1604 32.6889 30.9639 32.8672 30.7425 33.0031C30.5266 33.1333 30.3024 33.2352 30.07 33.3088C29.8375 33.3767 29.6078 33.422 29.3809 33.4447C29.1595 33.4617 28.9602 33.4701 28.7831 33.4701H24.3579V27.4067H28.7831C28.9602 27.4067 29.1595 27.418 29.3809 27.4407C29.6078 27.4577 29.8375 27.503 30.07 27.5766C30.3024 27.6445 30.5266 27.7464 30.7425 27.8823C30.9639 28.0125 31.1604 28.1908 31.3319 28.4173C31.5091 28.6381 31.6502 28.9155 31.7554 29.2495C31.8605 29.5779 31.9131 29.9742 31.9131 30.4384ZM29.2148 31.95C29.4252 31.95 29.5967 31.9076 29.7296 31.8227C29.8624 31.7377 29.9676 31.6245 30.0451 31.483C30.1226 31.3414 30.1751 31.1801 30.2028 30.9989C30.236 30.8177 30.2526 30.6309 30.2526 30.4384C30.2526 30.2459 30.236 30.0591 30.2028 29.8779C30.1751 29.6968 30.1226 29.5383 30.0451 29.4024C29.9676 29.2608 29.8624 29.1476 29.7296 29.0627C29.5967 28.9778 29.4252 28.9353 29.2148 28.9353H25.9354V31.95H29.2148Z" fill="#223A90"/>
<path d="M39.0302 27.4067V28.9098H34.1484V29.7506H39.0302V31.1688H34.1484V31.967H39.0302V33.4701H32.5793V27.4067H39.0302Z" fill="#223A90"/>
<path d="M41.2754 29.275C41.2754 29.3996 41.3473 29.4901 41.4912 29.5467C41.6407 29.6034 41.8344 29.643 42.0724 29.6656C42.3104 29.6883 42.5816 29.7024 42.8861 29.7081C43.1905 29.7138 43.5032 29.7307 43.8242 29.7591C44.1453 29.7817 44.458 29.8242 44.7624 29.8864C45.0668 29.9487 45.338 30.0506 45.576 30.1922C45.814 30.328 46.005 30.5092 46.1489 30.7357C46.2984 30.9621 46.3731 31.2537 46.3731 31.6104C46.3731 31.7236 46.362 31.8481 46.3399 31.984C46.3233 32.1199 46.2817 32.2586 46.2153 32.4001C46.1489 32.536 46.052 32.669 45.9247 32.7993C45.803 32.9295 45.6369 33.0455 45.4266 33.1474C45.2218 33.2437 44.9672 33.3229 44.6628 33.3852C44.3584 33.4418 43.9958 33.4701 43.5752 33.4701H42.5124C42.0918 33.4701 41.7293 33.4333 41.4248 33.3597C41.1204 33.2861 40.863 33.1927 40.6527 33.0795C40.4479 32.9606 40.2819 32.8247 40.1546 32.6719C40.0328 32.519 39.9387 32.3662 39.8723 32.2133C39.8059 32.0548 39.7616 31.9019 39.7394 31.7547C39.7228 31.6019 39.7145 31.4688 39.7145 31.3556H41.2837C41.2837 31.4009 41.292 31.4575 41.3086 31.5254C41.3307 31.5934 41.3695 31.6585 41.4248 31.7208C41.4802 31.783 41.5604 31.8368 41.6656 31.8821C41.7763 31.9274 41.9174 31.95 42.089 31.95H44.2477C44.4691 31.95 44.6157 31.9161 44.6877 31.8481C44.7652 31.7802 44.8039 31.7009 44.8039 31.6104C44.8039 31.4745 44.7292 31.3754 44.5797 31.3131C44.4358 31.2509 44.2449 31.2084 44.0069 31.1857C43.7689 31.1631 43.4949 31.1518 43.1849 31.1518C42.8805 31.1461 42.5678 31.132 42.2468 31.1093C41.9313 31.081 41.6186 31.0385 41.3086 30.9819C41.0042 30.9197 40.733 30.8234 40.495 30.6932C40.257 30.5573 40.0632 30.3762 39.9138 30.1497C39.7699 29.9232 39.6979 29.6317 39.6979 29.275C39.6979 29.0995 39.7228 28.9042 39.7726 28.689C39.828 28.4739 39.9498 28.2729 40.138 28.0861C40.3317 27.8936 40.614 27.7322 40.9848 27.602C41.3612 27.4718 41.8676 27.4067 42.5041 27.4067H43.5586C43.9847 27.4067 44.3501 27.4435 44.6545 27.5171C44.9589 27.5907 45.2135 27.687 45.4183 27.8058C45.6286 27.9247 45.7947 28.0606 45.9164 28.2135C46.0437 28.3607 46.1406 28.5135 46.207 28.6721C46.2734 28.8306 46.3149 28.9834 46.3316 29.1306C46.3537 29.2778 46.3648 29.4109 46.3648 29.5298H44.7873C44.7873 29.4845 44.779 29.4279 44.7624 29.3599C44.7458 29.292 44.7071 29.2269 44.6462 29.1646C44.5908 29.1023 44.5106 29.0485 44.4054 29.0032C44.3002 28.958 44.1591 28.9353 43.982 28.9353H41.8233C41.5964 28.9353 41.447 28.9693 41.375 29.0372C41.3086 29.0995 41.2754 29.1788 41.2754 29.275Z" fill="#223A90"/>
<path d="M53.0295 27.4067H54.5986V33.4701H53.0295V31.1518H48.6209V33.4701H47.0517V27.4067H48.6209V29.7336H53.0295V27.4067Z" fill="#223A90"/>
<path d="M55.4271 27.4067H56.9963V33.4701H55.4271V27.4067Z" fill="#223A90"/>
</svg>
