<svg width="79" height="79" viewBox="0 0 79 79" fill="none" xmlns="http://www.w3.org/2000/svg">
<path opacity="0.2" d="M33.4062 44.375H12.6875C12.041 44.375 11.421 44.1182 10.9639 43.6611C10.5068 43.204 10.25 42.584 10.25 41.9375V22.4375C10.25 21.791 10.5068 21.171 10.9639 20.7139C11.421 20.2568 12.041 20 12.6875 20H30.9687C31.6152 20 32.2352 20.2568 32.6923 20.7139C33.1494 21.171 33.4062 21.791 33.4062 22.4375V44.375Z" fill="#F4291A"/>
<path opacity="0.2" d="M68.75 44.375H48.0312C47.3848 44.375 46.7648 44.1182 46.3077 43.6611C45.8506 43.204 45.5938 42.584 45.5938 41.9375V22.4375C45.5938 21.791 45.8506 21.171 46.3077 20.7139C46.7648 20.2568 47.3848 20 48.0312 20H66.3125C66.959 20 67.579 20.2568 68.0361 20.7139C68.4932 21.171 68.75 21.791 68.75 22.4375V44.375Z" fill="#F4291A"/>
<path d="M33.4062 44.375H12.6875C12.041 44.375 11.421 44.1182 10.9639 43.6611C10.5068 43.204 10.25 42.584 10.25 41.9375V22.4375C10.25 21.791 10.5068 21.171 10.9639 20.7139C11.421 20.2568 12.041 20 12.6875 20H30.9687C31.6152 20 32.2352 20.2568 32.6923 20.7139C33.1494 21.171 33.4062 21.791 33.4062 22.4375V49.25C33.4062 52.4823 32.1222 55.5823 29.8366 57.8679C27.551 60.1535 24.4511 61.4375 21.2187 61.4375" stroke="#F4291A" stroke-width="5.03226" stroke-linecap="round" stroke-linejoin="round"/>
<path d="M68.75 44.375H48.0312C47.3848 44.375 46.7648 44.1182 46.3077 43.6611C45.8506 43.204 45.5938 42.584 45.5938 41.9375V22.4375C45.5938 21.791 45.8506 21.171 46.3077 20.7139C46.7648 20.2568 47.3848 20 48.0312 20H66.3125C66.959 20 67.579 20.2568 68.0361 20.7139C68.4932 21.171 68.75 21.791 68.75 22.4375V49.25C68.75 52.4823 67.466 55.5823 65.1804 57.8679C62.8948 60.1535 59.7948 61.4375 56.5625 61.4375" stroke="#F4291A" stroke-width="5.03226" stroke-linecap="round" stroke-linejoin="round"/>
</svg>
