<svg width="28" height="24" viewBox="0 0 28 24" fill="none" xmlns="http://www.w3.org/2000/svg">
<path d="M15.0812 0.745201C14.5995 -0.0849872 13.4006 -0.0849905 12.9188 0.745201L9.52628 6.59184C9.28831 7.00194 8.877 7.28181 8.40817 7.35262L2.05028 8.3129C0.982428 8.47418 0.607853 9.82245 1.43948 10.5114L6.17585 14.4355C6.61428 14.7987 6.82043 15.3717 6.71392 15.931L5.47496 22.4374C5.27911 23.4659 6.35884 24.2651 7.28528 23.7773L13.272 20.625C13.7277 20.385 14.2723 20.385 14.728 20.625L20.7147 23.7773C21.6412 24.2651 22.7209 23.4659 22.5251 22.4374L21.2861 15.931C21.1796 15.3717 21.3858 14.7987 21.8242 14.4355L26.5605 10.5114C27.3922 9.82245 27.0176 8.47418 25.9497 8.3129L19.5919 7.35262C19.123 7.28181 18.7117 7.00194 18.4737 6.59184L15.0812 0.745201Z" fill="#F4291A"/>
</svg>
